<svg width="392" height="370" viewBox="0 0 392 370" fill="none" xmlns="http://www.w3.org/2000/svg">
<g clip-path="url(#clip0_12_16)">
<rect width="392" height="370" fill="#111827"/>
<path d="M194.87 206.558C213.28 206.558 228.204 191.668 228.204 173.299C228.204 154.93 213.28 140.04 194.87 140.04C176.459 140.04 161.535 154.93 161.535 173.299C161.535 191.668 176.459 206.558 194.87 206.558Z" fill="#61DAFB"/>
<path d="M194.87 206.558C213.28 206.558 228.204 191.668 228.204 173.299C228.204 154.93 213.28 140.04 194.87 140.04C176.459 140.04 161.535 154.93 161.535 173.299C161.535 191.668 176.459 206.558 194.87 206.558Z" stroke="#179DFF" stroke-width="15"/>
<path d="M194.87 241.44C293.656 241.44 373.739 210.932 373.739 173.299C373.739 135.666 293.656 105.158 194.87 105.158C96.0826 105.158 16 135.666 16 173.299C16 210.932 96.0826 241.44 194.87 241.44Z" stroke="#179DFF" stroke-width="15"/>
<path d="M135.724 207.369C185.117 292.728 251.639 346.67 284.304 327.854C316.97 309.037 303.409 224.587 254.015 139.229C204.622 53.8704 138.1 -0.0721846 105.435 18.7444C72.7695 37.561 86.3303 122.011 135.724 207.369Z" stroke="#179DFF" stroke-width="15"/>
<path d="M135.724 139.229C86.3304 224.587 72.7695 309.037 105.435 327.854C138.1 346.67 204.622 292.728 254.015 207.369C303.409 122.011 316.97 37.561 284.304 18.7444C251.639 -0.0721974 185.117 53.8704 135.724 139.229Z" stroke="#179DFF" stroke-width="15"/>
<rect x="194.87" y="173.299" width="197" height="197" rx="39" fill="#111827"/>
<rect x="202.87" y="181.299" width="181" height="181" rx="32" fill="#FDC22D"/>
<path d="M249.062 203.924C242.812 203.924 236.817 206.407 232.397 210.827C227.978 215.247 225.495 221.241 225.495 227.492V243.518H265.088V203.924H249.062ZM274.515 203.924V243.518H312.224V203.924H274.515ZM265.088 252.945H225.495V290.653H265.088V252.945ZM274.515 290.653V252.945H312.224V290.653H274.515ZM265.088 300.08H225.495V316.106C225.495 322.357 227.978 328.351 232.397 332.771C236.817 337.191 242.812 339.674 249.062 339.674H265.088V300.08ZM274.515 339.674H312.224V300.08H274.515V339.674ZM321.651 339.674V300.08H361.245V316.106C361.245 322.357 358.762 328.351 354.342 332.771C349.922 337.191 343.927 339.674 337.677 339.674H321.651ZM361.245 252.945V290.653H321.651V252.945H361.245ZM361.245 243.518V227.492C361.245 221.241 358.762 215.247 354.342 210.827C349.922 206.407 343.927 203.924 337.677 203.924H321.651V243.518H361.245Z" fill="#111827"/>
</g>
<defs>
<clipPath id="clip0_12_16">
<rect width="392" height="370" fill="white"/>
</clipPath>
</defs>
</svg>
