<svg width="1067" height="370" viewBox="0 0 1067 370" fill="none" xmlns="http://www.w3.org/2000/svg">
<g clip-path="url(#clip0_6_46)">
<rect width="1066" height="370" transform="translate(0.93457)" fill="white"/>
<path d="M418.325 139.299V68.9353H434.404V80.6626H435.137C436.42 76.6008 438.618 73.4705 441.734 71.2716C444.879 69.0422 448.468 67.9275 452.499 67.9275C453.415 67.9275 454.438 67.9733 455.568 68.0649C456.729 68.126 457.691 68.2329 458.454 68.3856V83.6402C457.752 83.3959 456.637 83.1821 455.11 82.9989C453.614 82.7851 452.163 82.6782 450.758 82.6782C447.735 82.6782 445.017 83.3348 442.604 84.648C440.222 85.9307 438.344 87.7173 436.969 90.0078C435.595 92.2982 434.908 94.9399 434.908 97.9328V139.299H418.325ZM497.724 140.673C490.67 140.673 484.577 139.207 479.446 136.276C474.346 133.313 470.422 129.129 467.673 123.724C464.925 118.288 463.55 111.89 463.55 104.529C463.55 97.2915 464.925 90.9392 467.673 85.4726C470.452 79.9754 474.331 75.6999 479.309 72.6459C484.287 69.5614 490.135 68.0191 496.854 68.0191C501.191 68.0191 505.283 68.7215 509.131 70.1264C513.01 71.5007 516.43 73.6384 519.392 76.5397C522.385 79.441 524.737 83.1363 526.447 87.6257C528.157 92.0845 529.012 97.3984 529.012 103.567V108.652H471.338V97.4747H513.116C513.086 94.2986 512.399 91.4737 511.055 88.9999C509.711 86.4957 507.833 84.5259 505.42 83.0905C503.038 81.6551 500.259 80.9374 497.083 80.9374C493.693 80.9374 490.716 81.762 488.15 83.4112C485.585 85.0298 483.584 87.1676 482.149 89.8245C480.744 92.4509 480.027 95.3369 479.996 98.4825V108.24C479.996 112.332 480.744 115.844 482.241 118.776C483.737 121.678 485.829 123.907 488.517 125.464C491.204 126.991 494.35 127.755 497.953 127.755C500.366 127.755 502.55 127.419 504.504 126.747C506.459 126.045 508.154 125.022 509.589 123.678C511.024 122.334 512.109 120.67 512.842 118.685L528.325 120.425C527.348 124.518 525.485 128.091 522.736 131.145C520.018 134.168 516.537 136.52 512.292 138.2C508.047 139.849 503.191 140.673 497.724 140.673ZM563.289 140.719C558.831 140.719 554.815 139.925 551.242 138.337C547.699 136.718 544.889 134.336 542.813 131.191C540.766 128.045 539.743 124.166 539.743 119.555C539.743 115.585 540.476 112.302 541.942 109.706C543.408 107.11 545.408 105.033 547.943 103.476C550.478 101.918 553.333 100.742 556.51 99.9485C559.716 99.1239 563.03 98.5284 566.45 98.1619C570.573 97.7343 573.917 97.3526 576.483 97.0166C579.048 96.6502 580.911 96.1004 582.071 95.3675C583.262 94.604 583.858 93.4282 583.858 91.8401V91.5653C583.858 88.1143 582.835 85.4421 580.789 83.5486C578.743 81.6551 575.795 80.7084 571.947 80.7084C567.886 80.7084 564.664 81.594 562.282 83.3654C559.93 85.1367 558.342 87.2286 557.517 89.6413L542.034 87.4424C543.255 83.1668 545.271 79.5937 548.081 76.723C550.89 73.8217 554.326 71.6533 558.388 70.218C562.45 68.7521 566.939 68.0191 571.856 68.0191C575.246 68.0191 578.62 68.4161 581.98 69.2102C585.339 70.0042 588.408 71.3174 591.188 73.1498C593.967 74.9516 596.196 77.4101 597.876 80.5252C599.586 83.6402 600.441 87.534 600.441 92.2066V139.299H584.499V129.633H583.95C582.942 131.588 581.522 133.42 579.689 135.13C577.887 136.81 575.612 138.169 572.864 139.207C570.146 140.215 566.954 140.719 563.289 140.719ZM567.596 128.534C570.924 128.534 573.81 127.877 576.254 126.564C578.697 125.22 580.575 123.449 581.888 121.25C583.232 119.051 583.904 116.654 583.904 114.058V105.766C583.385 106.194 582.499 106.591 581.247 106.957C580.025 107.324 578.651 107.644 577.124 107.919C575.597 108.194 574.085 108.439 572.589 108.652C571.092 108.866 569.794 109.049 568.695 109.202C566.221 109.538 564.007 110.088 562.053 110.851C560.098 111.615 558.556 112.684 557.426 114.058C556.296 115.402 555.731 117.142 555.731 119.28C555.731 122.334 556.846 124.64 559.075 126.197C561.304 127.755 564.145 128.534 567.596 128.534ZM647.808 140.673C640.784 140.673 634.753 139.131 629.713 136.046C624.705 132.962 620.842 128.702 618.124 123.266C615.436 117.799 614.092 111.508 614.092 104.392C614.092 97.2457 615.467 90.9392 618.215 85.4726C620.964 79.9754 624.842 75.6999 629.851 72.6459C634.89 69.5614 640.845 68.0191 647.717 68.0191C653.428 68.0191 658.482 69.0727 662.88 71.18C667.308 73.2567 670.835 76.2038 673.462 80.0212C676.088 83.8082 677.585 88.2364 677.951 93.3061H662.101C661.46 89.9161 659.933 87.0912 657.52 84.8313C655.138 82.5408 651.946 81.3955 647.946 81.3955C644.556 81.3955 641.578 82.3117 639.013 84.1441C636.447 85.946 634.447 88.5418 633.012 91.9318C631.607 95.3217 630.905 99.3835 630.905 104.117C630.905 108.912 631.607 113.035 633.012 116.486C634.417 119.906 636.386 122.548 638.921 124.411C641.487 126.243 644.495 127.159 647.946 127.159C650.389 127.159 652.572 126.701 654.496 125.785C656.451 124.838 658.085 123.479 659.398 121.708C660.711 119.937 661.612 117.784 662.101 115.249H677.951C677.554 120.227 676.088 124.64 673.553 128.488C671.019 132.305 667.568 135.298 663.2 137.467C658.833 139.604 653.702 140.673 647.808 140.673ZM726.704 68.9353V81.762H686.254V68.9353H726.704ZM696.241 52.0774H712.824V118.135C712.824 120.364 713.16 122.075 713.831 123.266C714.534 124.426 715.45 125.22 716.58 125.648C717.71 126.075 718.962 126.289 720.336 126.289C721.375 126.289 722.322 126.213 723.177 126.06C724.062 125.907 724.734 125.77 725.192 125.648L727.987 138.612C727.101 138.917 725.834 139.253 724.184 139.62C722.566 139.986 720.581 140.2 718.229 140.261C714.076 140.383 710.335 139.757 707.006 138.383C703.677 136.978 701.035 134.81 699.081 131.878C697.157 128.946 696.21 125.281 696.241 120.883V52.0774ZM780.954 93.3977V107.049H738.718V93.3977H780.954ZM453.461 176.935V189.762H413.011V176.935H453.461ZM422.997 160.077H439.58V226.135C439.58 228.364 439.916 230.075 440.588 231.266C441.291 232.426 442.207 233.22 443.337 233.648C444.467 234.075 445.719 234.289 447.093 234.289C448.132 234.289 449.078 234.213 449.933 234.06C450.819 233.907 451.491 233.77 451.949 233.648L454.743 246.612C453.858 246.917 452.59 247.253 450.941 247.62C449.323 247.986 447.338 248.2 444.986 248.261C440.833 248.383 437.091 247.757 433.763 246.383C430.434 244.978 427.792 242.81 425.838 239.878C423.914 236.946 422.967 233.281 422.997 228.883V160.077ZM487.578 248.719C483.119 248.719 479.103 247.925 475.53 246.337C471.987 244.718 469.177 242.336 467.101 239.191C465.054 236.045 464.031 232.166 464.031 227.555C464.031 223.585 464.764 220.302 466.23 217.706C467.696 215.11 469.697 213.033 472.231 211.476C474.766 209.918 477.622 208.742 480.798 207.948C484.004 207.124 487.318 206.528 490.738 206.162C494.861 205.734 498.205 205.353 500.771 205.017C503.336 204.65 505.199 204.1 506.36 203.367C507.551 202.604 508.146 201.428 508.146 199.84V199.565C508.146 196.114 507.123 193.442 505.077 191.549C503.031 189.655 500.084 188.708 496.236 188.708C492.174 188.708 488.952 189.594 486.57 191.365C484.218 193.137 482.63 195.229 481.806 197.641L466.322 195.442C467.543 191.167 469.559 187.594 472.369 184.723C475.178 181.822 478.614 179.653 482.676 178.218C486.738 176.752 491.227 176.019 496.144 176.019C499.534 176.019 502.909 176.416 506.268 177.21C509.627 178.004 512.697 179.317 515.476 181.15C518.255 182.952 520.484 185.41 522.164 188.525C523.874 191.64 524.729 195.534 524.729 200.207V247.299H508.787V237.633H508.238C507.23 239.588 505.81 241.42 503.977 243.13C502.176 244.81 499.9 246.169 497.152 247.207C494.434 248.215 491.242 248.719 487.578 248.719ZM491.884 236.534C495.212 236.534 498.099 235.877 500.542 234.564C502.985 233.22 504.863 231.449 506.176 229.25C507.52 227.051 508.192 224.654 508.192 222.058V213.766C507.673 214.194 506.787 214.591 505.535 214.957C504.313 215.324 502.939 215.644 501.412 215.919C499.885 216.194 498.373 216.439 496.877 216.652C495.38 216.866 494.083 217.049 492.983 217.202C490.509 217.538 488.295 218.088 486.341 218.851C484.386 219.615 482.844 220.684 481.714 222.058C480.584 223.402 480.019 225.142 480.019 227.28C480.019 230.334 481.134 232.64 483.363 234.197C485.592 235.755 488.433 236.534 491.884 236.534ZM557.987 206.07V247.299H541.404V176.935H557.254V188.892H558.079C559.697 184.952 562.278 181.822 565.82 179.501C569.394 177.18 573.807 176.019 579.059 176.019C583.915 176.019 588.145 177.057 591.749 179.134C595.383 181.211 598.193 184.219 600.178 188.159C602.193 192.098 603.186 196.878 603.155 202.497V247.299H586.572V205.062C586.572 200.359 585.351 196.679 582.907 194.022C580.495 191.365 577.151 190.037 572.875 190.037C569.974 190.037 567.393 190.678 565.133 191.961C562.904 193.213 561.148 195.03 559.865 197.412C558.613 199.794 557.987 202.68 557.987 206.07ZM675.626 195.534L660.509 197.183C660.081 195.656 659.333 194.221 658.264 192.877C657.226 191.533 655.821 190.449 654.05 189.625C652.279 188.8 650.11 188.388 647.545 188.388C644.094 188.388 641.193 189.136 638.841 190.632C636.52 192.129 635.375 194.068 635.405 196.45C635.375 198.496 636.123 200.161 637.65 201.443C639.208 202.726 641.773 203.78 645.346 204.604L657.348 207.17C664.006 208.605 668.953 210.88 672.19 213.995C675.458 217.11 677.107 221.187 677.138 226.227C677.107 230.655 675.809 234.564 673.244 237.954C670.709 241.313 667.182 243.94 662.662 245.833C658.142 247.727 652.95 248.673 647.087 248.673C638.475 248.673 631.542 246.871 626.289 243.268C621.036 239.633 617.906 234.579 616.898 228.105L633.069 226.547C633.802 229.723 635.36 232.121 637.742 233.739C640.124 235.358 643.224 236.167 647.041 236.167C650.981 236.167 654.141 235.358 656.524 233.739C658.936 232.121 660.143 230.12 660.143 227.738C660.143 225.723 659.364 224.058 657.806 222.745C656.279 221.432 653.897 220.424 650.66 219.722L638.658 217.202C631.909 215.797 626.915 213.43 623.678 210.102C620.441 206.742 618.837 202.497 618.868 197.366C618.837 193.03 620.013 189.273 622.395 186.097C624.808 182.891 628.152 180.417 632.428 178.676C636.734 176.905 641.697 176.019 647.316 176.019C655.562 176.019 662.051 177.775 666.785 181.287C671.549 184.799 674.496 189.548 675.626 195.534ZM725.948 176.935V189.762H685.498V176.935H725.948ZM695.485 160.077H712.068V226.135C712.068 228.364 712.404 230.075 713.076 231.266C713.778 232.426 714.694 233.22 715.824 233.648C716.954 234.075 718.206 234.289 719.581 234.289C720.619 234.289 721.566 234.213 722.421 234.06C723.306 233.907 723.978 233.77 724.436 233.648L727.231 246.612C726.345 246.917 725.078 247.253 723.429 247.62C721.81 247.986 719.825 248.2 717.473 248.261C713.32 248.383 709.579 247.757 706.25 246.383C702.921 244.978 700.279 242.81 698.325 239.878C696.401 236.946 695.454 233.281 695.485 228.883V160.077ZM760.065 248.719C755.606 248.719 751.59 247.925 748.017 246.337C744.474 244.718 741.665 242.336 739.588 239.191C737.542 236.045 736.519 232.166 736.519 227.555C736.519 223.585 737.252 220.302 738.718 217.706C740.183 215.11 742.184 213.033 744.719 211.476C747.253 209.918 750.109 208.742 753.285 207.948C756.492 207.124 759.805 206.528 763.226 206.162C767.349 205.734 770.693 205.353 773.258 205.017C775.823 204.65 777.686 204.1 778.847 203.367C780.038 202.604 780.633 201.428 780.633 199.84V199.565C780.633 196.114 779.61 193.442 777.564 191.549C775.518 189.655 772.571 188.708 768.723 188.708C764.661 188.708 761.439 189.594 759.057 191.365C756.705 193.137 755.117 195.229 754.293 197.641L738.809 195.442C740.031 191.167 742.046 187.594 744.856 184.723C747.666 181.822 751.101 179.653 755.163 178.218C759.225 176.752 763.714 176.019 768.631 176.019C772.021 176.019 775.396 176.416 778.755 177.21C782.115 178.004 785.184 179.317 787.963 181.15C790.742 182.952 792.971 185.41 794.651 188.525C796.361 191.64 797.216 195.534 797.216 200.207V247.299H781.275V237.633H780.725C779.717 239.588 778.297 241.42 776.465 243.13C774.663 244.81 772.388 246.169 769.639 247.207C766.921 248.215 763.73 248.719 760.065 248.719ZM764.371 236.534C767.7 236.534 770.586 235.877 773.029 234.564C775.472 233.22 777.35 231.449 778.664 229.25C780.007 227.051 780.679 224.654 780.679 222.058V213.766C780.16 214.194 779.274 214.591 778.022 214.957C776.801 215.324 775.426 215.644 773.899 215.919C772.372 216.194 770.861 216.439 769.364 216.652C767.868 216.866 766.57 217.049 765.47 217.202C762.997 217.538 760.783 218.088 758.828 218.851C756.873 219.615 755.331 220.684 754.201 222.058C753.071 223.402 752.506 225.142 752.506 227.28C752.506 230.334 753.621 232.64 755.85 234.197C758.08 235.755 760.92 236.534 764.371 236.534ZM844.584 248.673C837.56 248.673 831.528 247.131 826.489 244.046C821.48 240.962 817.617 236.702 814.899 231.266C812.212 225.799 810.868 219.508 810.868 212.392C810.868 205.246 812.242 198.939 814.991 193.473C817.739 187.975 821.618 183.7 826.626 180.646C831.665 177.561 837.621 176.019 844.492 176.019C850.203 176.019 855.257 177.073 859.655 179.18C864.083 181.257 867.611 184.204 870.237 188.021C872.864 191.808 874.36 196.236 874.726 201.306H858.876C858.235 197.916 856.708 195.091 854.295 192.831C851.913 190.541 848.722 189.396 844.721 189.396C841.331 189.396 838.354 190.312 835.788 192.144C833.223 193.946 831.223 196.542 829.787 199.932C828.382 203.322 827.68 207.383 827.68 212.117C827.68 216.912 828.382 221.035 829.787 224.486C831.192 227.906 833.162 230.548 835.697 232.411C838.262 234.243 841.27 235.159 844.721 235.159C847.164 235.159 849.348 234.701 851.272 233.785C853.226 232.838 854.86 231.479 856.174 229.708C857.487 227.937 858.388 225.784 858.876 223.249H874.726C874.329 228.227 872.864 232.64 870.329 236.488C867.794 240.305 864.343 243.298 859.976 245.467C855.609 247.604 850.478 248.673 844.584 248.673ZM903.461 225.219L903.415 205.2H906.072L931.359 176.935H950.736L919.631 211.567H916.196L903.461 225.219ZM888.343 247.299V153.481H904.926V247.299H888.343ZM932.504 247.299L909.599 215.278L920.777 203.597L952.339 247.299H932.504ZM1000.91 201.398V215.049H958.673V201.398H1000.91ZM453.461 284.935V297.762H413.011V284.935H453.461ZM422.997 268.077H439.58V334.135C439.58 336.364 439.916 338.075 440.588 339.266C441.291 340.426 442.207 341.22 443.337 341.648C444.467 342.075 445.719 342.289 447.093 342.289C448.132 342.289 449.078 342.213 449.933 342.06C450.819 341.907 451.491 341.77 451.949 341.648L454.743 354.612C453.858 354.917 452.59 355.253 450.941 355.62C449.323 355.986 447.338 356.2 444.986 356.261C440.833 356.383 437.091 355.757 433.763 354.383C430.434 352.978 427.792 350.81 425.838 347.878C423.914 344.946 422.967 341.281 422.997 336.883V268.077ZM487.578 356.719C483.119 356.719 479.103 355.925 475.53 354.337C471.987 352.718 469.177 350.336 467.101 347.191C465.054 344.045 464.031 340.166 464.031 335.555C464.031 331.585 464.764 328.302 466.23 325.706C467.696 323.11 469.697 321.033 472.231 319.476C474.766 317.918 477.622 316.742 480.798 315.948C484.004 315.124 487.318 314.528 490.738 314.162C494.861 313.734 498.205 313.353 500.771 313.017C503.336 312.65 505.199 312.1 506.36 311.367C507.551 310.604 508.146 309.428 508.146 307.84V307.565C508.146 304.114 507.123 301.442 505.077 299.549C503.031 297.655 500.084 296.708 496.236 296.708C492.174 296.708 488.952 297.594 486.57 299.365C484.218 301.137 482.63 303.229 481.806 305.641L466.322 303.442C467.543 299.167 469.559 295.594 472.369 292.723C475.178 289.822 478.614 287.653 482.676 286.218C486.738 284.752 491.227 284.019 496.144 284.019C499.534 284.019 502.909 284.416 506.268 285.21C509.627 286.004 512.697 287.317 515.476 289.15C518.255 290.952 520.484 293.41 522.164 296.525C523.874 299.64 524.729 303.534 524.729 308.207V355.299H508.787V345.633H508.238C507.23 347.588 505.81 349.42 503.977 351.13C502.176 352.81 499.9 354.169 497.152 355.207C494.434 356.215 491.242 356.719 487.578 356.719ZM491.884 344.534C495.212 344.534 498.099 343.877 500.542 342.564C502.985 341.22 504.863 339.449 506.176 337.25C507.52 335.051 508.192 332.654 508.192 330.058V321.766C507.673 322.194 506.787 322.591 505.535 322.957C504.313 323.324 502.939 323.644 501.412 323.919C499.885 324.194 498.373 324.439 496.877 324.652C495.38 324.866 494.083 325.049 492.983 325.202C490.509 325.538 488.295 326.088 486.341 326.851C484.386 327.615 482.844 328.684 481.714 330.058C480.584 331.402 480.019 333.142 480.019 335.28C480.019 338.334 481.134 340.64 483.363 342.197C485.592 343.755 488.433 344.534 491.884 344.534ZM542.137 355.299V261.481H558.72V296.571H559.407C560.262 294.861 561.469 293.044 563.026 291.12C564.584 289.165 566.691 287.501 569.348 286.126C572.005 284.722 575.395 284.019 579.518 284.019C584.954 284.019 589.855 285.409 594.222 288.188C598.62 290.936 602.102 295.013 604.667 300.419C607.263 305.794 608.561 312.391 608.561 320.209C608.561 327.935 607.293 334.501 604.759 339.907C602.224 345.312 598.773 349.435 594.406 352.276C590.038 355.116 585.091 356.536 579.563 356.536C575.532 356.536 572.188 355.864 569.531 354.52C566.874 353.176 564.736 351.558 563.118 349.664C561.53 347.74 560.293 345.923 559.407 344.213H558.445V355.299H542.137ZM558.399 320.117C558.399 324.668 559.041 328.653 560.323 332.073C561.636 335.494 563.515 338.166 565.958 340.09C568.432 341.984 571.424 342.93 574.937 342.93C578.601 342.93 581.671 341.953 584.144 339.999C586.618 338.013 588.481 335.311 589.733 331.89C591.016 328.439 591.657 324.515 591.657 320.117C591.657 315.75 591.031 311.871 589.779 308.481C588.527 305.092 586.664 302.435 584.19 300.511C581.716 298.587 578.632 297.625 574.937 297.625C571.394 297.625 568.386 298.556 565.912 300.419C563.438 302.282 561.56 304.893 560.277 308.252C559.025 311.612 558.399 315.567 558.399 320.117ZM639.242 261.481V355.299H622.659V261.481H639.242ZM687.445 356.673C680.39 356.673 674.298 355.207 669.167 352.276C664.067 349.313 660.143 345.129 657.394 339.724C654.645 334.288 653.271 327.89 653.271 320.529C653.271 313.291 654.645 306.939 657.394 301.473C660.173 295.975 664.052 291.7 669.03 288.646C674.008 285.561 679.856 284.019 686.575 284.019C690.911 284.019 695.004 284.722 698.852 286.126C702.73 287.501 706.151 289.638 709.113 292.54C712.106 295.441 714.458 299.136 716.168 303.626C717.878 308.084 718.733 313.398 718.733 319.567V324.652H661.059V313.475H702.837C702.807 310.299 702.119 307.474 700.776 305C699.432 302.496 697.554 300.526 695.141 299.09C692.759 297.655 689.98 296.937 686.804 296.937C683.414 296.937 680.436 297.762 677.871 299.411C675.306 301.03 673.305 303.168 671.87 305.825C670.465 308.451 669.747 311.337 669.717 314.483V324.24C669.717 328.332 670.465 331.844 671.961 334.776C673.458 337.678 675.55 339.907 678.237 341.464C680.925 342.991 684.07 343.755 687.674 343.755C690.087 343.755 692.27 343.419 694.225 342.747C696.179 342.045 697.874 341.022 699.31 339.678C700.745 338.334 701.829 336.67 702.562 334.685L718.046 336.425C717.069 340.518 715.206 344.091 712.457 347.145C709.739 350.168 706.258 352.52 702.013 354.2C697.768 355.849 692.912 356.673 687.445 356.673ZM775.411 309.398V323.049H733.175V309.398H775.411ZM837.701 325.706V284.935H854.284V355.299H838.205V342.793H837.472C835.884 346.733 833.273 349.954 829.638 352.459C826.035 354.963 821.591 356.215 816.308 356.215C811.696 356.215 807.619 355.192 804.076 353.146C800.564 351.069 797.816 348.061 795.831 344.121C793.846 340.151 792.853 335.356 792.853 329.737V284.935H809.436V327.172C809.436 331.631 810.658 335.173 813.101 337.8C815.544 340.426 818.751 341.739 822.721 341.739C825.164 341.739 827.531 341.144 829.822 339.953C832.112 338.762 833.99 336.99 835.456 334.639C836.953 332.257 837.701 329.279 837.701 325.706ZM871.337 355.299V284.935H887.92V355.299H871.337ZM879.674 274.949C877.047 274.949 874.788 274.078 872.894 272.338C871.001 270.566 870.054 268.444 870.054 265.97C870.054 263.466 871.001 261.343 872.894 259.603C874.788 257.831 877.047 256.946 879.674 256.946C882.331 256.946 884.591 257.831 886.454 259.603C888.347 261.343 889.294 263.466 889.294 265.97C889.294 268.444 888.347 270.566 886.454 272.338C884.591 274.078 882.331 274.949 879.674 274.949Z" fill="black"/>
<path d="M195.804 206.558C214.214 206.558 229.139 191.668 229.139 173.299C229.139 154.93 214.214 140.04 195.804 140.04C177.394 140.04 162.469 154.93 162.469 173.299C162.469 191.668 177.394 206.558 195.804 206.558Z" fill="#61DAFB"/>
<path d="M195.804 206.558C214.214 206.558 229.139 191.668 229.139 173.299C229.139 154.93 214.214 140.04 195.804 140.04C177.394 140.04 162.469 154.93 162.469 173.299C162.469 191.668 177.394 206.558 195.804 206.558Z" stroke="#179DFF" stroke-width="15"/>
<path d="M195.804 241.44C294.591 241.44 374.674 210.932 374.674 173.299C374.674 135.666 294.591 105.158 195.804 105.158C97.0172 105.158 16.9346 135.666 16.9346 173.299C16.9346 210.932 97.0172 241.44 195.804 241.44Z" stroke="#179DFF" stroke-width="15"/>
<path d="M136.658 207.369C186.052 292.728 252.574 346.67 285.239 327.854C317.904 309.037 304.343 224.587 254.95 139.229C205.556 53.8704 139.035 -0.0721846 106.369 18.7444C73.704 37.561 87.2649 122.011 136.658 207.369Z" stroke="#179DFF" stroke-width="15"/>
<path d="M136.658 139.229C87.2649 224.587 73.7041 309.037 106.369 327.854C139.035 346.67 205.556 292.728 254.95 207.369C304.343 122.011 317.904 37.561 285.239 18.7444C252.574 -0.072197 186.052 53.8704 136.658 139.229Z" stroke="#179DFF" stroke-width="15"/>
<rect x="195.804" y="173.299" width="197" height="197" rx="39" fill="white"/>
<rect x="203.804" y="181.299" width="181" height="181" rx="32" fill="#FDC22D"/>
<path d="M249.997 203.924C243.746 203.924 237.752 206.407 233.332 210.827C228.912 215.247 226.429 221.241 226.429 227.492V243.518H266.023V203.924H249.997ZM275.45 203.924V243.518H313.158V203.924H275.45ZM266.023 252.945H226.429V290.653H266.023V252.945ZM275.45 290.653V252.945H313.158V290.653H275.45ZM266.023 300.08H226.429V316.106C226.429 322.357 228.912 328.351 233.332 332.771C237.752 337.191 243.746 339.674 249.997 339.674H266.023V300.08ZM275.45 339.674H313.158V300.08H275.45V339.674ZM322.585 339.674V300.08H362.179V316.106C362.179 322.357 359.696 328.351 355.276 332.771C350.857 337.191 344.862 339.674 338.611 339.674H322.585ZM362.179 252.945V290.653H322.585V252.945H362.179ZM362.179 243.518V227.492C362.179 221.241 359.696 215.247 355.276 210.827C350.857 206.407 344.862 203.924 338.611 203.924H322.585V243.518H362.179Z" fill="white"/>
</g>
<defs>
<clipPath id="clip0_6_46">
<rect width="1066" height="370" fill="white" transform="translate(0.93457)"/>
</clipPath>
</defs>
</svg>
